Coordinates
version=1
nRows=16
nColumns=42
inDegrees=yes

Units are S.I. units (second, meters, Newtons, ...)
If the header above contains a line with 'inDegrees', this indicates whether rotational values are in degrees (yes) or radians (no).

endheader
time	pelvis_tilt	pelvis_list	pelvis_rotation	pelvis_tx	pelvis_ty	pelvis_tz	hip_flexion_r	hip_adduction_r	hip_rotation_r	knee_angle_r	knee_adduction_r	knee_angle_r_beta	ankle_angle_r	subtalar_angle_r	mtp_angle_r	hip_flexion_l	hip_adduction_l	hip_rotation_l	knee_angle_l	knee_adduction_l	knee_angle_l_beta	ankle_angle_l	subtalar_angle_l	mtp_angle_l	lumbar_extension	lumbar_bending	lumbar_rotation	arm_flex_r	arm_add_r	arm_rot_r	elbow_flex_r	pro_sup_r	wrist_flex_r	wrist_dev_r	arm_flex_l	arm_add_l	arm_rot_l	elbow_flex_l	pro_sup_l	wrist_flex_l	wrist_dev_l
      1.32000000	     15.32860715	      0.78235103	     -2.61590187	     -0.11330935	      0.89588811	     -0.35974235	     -4.84066575	     -3.13097361	     -5.67318459	     67.07982655	     -5.90941989	      1.17076383	      7.63368372	    -18.46216808	     -7.52817155	    -10.44857102	      5.30265099	    -18.99042365	     15.99102815	      0.31440591	      0.27909609	     18.94120734	      8.70730011	     -7.52817155	    -29.31698799	     -2.91393266	     -1.97291533	     -3.11396027	     -3.68985209	    -21.81109955	     33.07195588	     90.00000001	      0.00000000	      0.00000000	     -2.30129778	     -3.13572696	    -19.53559314	     39.25640718	     90.00000001	      0.00000000	      0.00000000
      1.33000000	     15.42843989	      0.63777276	     -2.33963392	     -0.10324744	      0.89665166	     -0.35971137	     -3.40898616	     -2.86673130	     -5.60077160	     66.74639028	     -6.07820125	      1.16494427	      9.17277939	    -18.47739529	     -7.52729515	    -11.84191444	      5.07635807	    -18.81117874	     14.96693687	      0.64423764	      0.26122233	     19.10843688	      9.29379195	     -7.52729515	    -29.46900893	     -2.66509643	     -2.50642664	     -3.21621666	     -3.59652996	    -22.32661789	     32.88017940	     90.00000001	      0.00000000	      0.00000000	     -2.05898662	     -3.38824170	    -18.67697534	     40.01584945	     90.00000001	      0.00000000	      0.00000000
      1.34000000	     15.47234315	      0.49669874	     -2.09060752	     -0.09319365	      0.89711355	     -0.35955273	     -1.97051397	     -2.58605292	     -5.54332522	     66.11709085	     -6.26305039	      1.15396093	     10.34380025	    -18.50068745	     -7.52457663	    -13.12291582	      4.84373003	    -18.84258309	     14.03051870	      0.89971459	      0.24487875	     19.26260431	      9.95491085	     -7.52457663	    -29.55137169	     -2.44722770	     -2.90140685	     -3.16577281	     -3.30090208	    -24.17192945	     32.52789891	     90.00000001	      0.00000000	      0.00000000	     -2.09623586	     -4.01984554	    -16.05332394	     41.37871061	     90.00000001	      0.00000000	      0.00000000
      1.35000000	     15.51361976	      0.28734490	     -1.85968588	     -0.08316219	      0.89739116	     -0.35926340	     -0.62008285	     -2.17951468	     -5.46247604	     65.12622541	     -6.44682086	      1.13666706	     11.07433178	    -18.61202377	     -7.52415969	    -14.36540254	      4.51158022	    -18.97043922	     13.18989274	      1.17571584	      0.23020706	     19.43834694	     10.36513589	     -7.52415969	    -29.62072840	     -2.19035307	     -3.24144898	     -3.40257000	     -3.28181525	    -24.31736466	     32.49804105	     90.00000001	      0.00000000	      0.00000000	     -1.57363980	     -4.11163631	    -15.88766154	     41.68918697	     90.00000001	      0.00000000	      0.00000000
      1.36000000	     15.68881147	      0.14867024	     -1.56199931	     -0.07292959	      0.89760520	     -0.35894865	      0.42225788	     -1.88709854	     -5.50874611	     63.72960536	     -6.54512003	      1.11229144	     11.91540587	    -18.53676450	     -7.52338314	    -15.86697458	      4.25389011	    -18.83988160	     12.11186029	      1.51807326	      0.21139184	     19.60859851	     11.34690287	     -7.52338314	    -29.80791258	     -1.98745054	     -3.65524899	     -3.64677631	     -3.14548589	    -24.73052119	     32.46269340	     90.00000001	      0.00000000	      0.00000000	     -1.17578741	     -4.33471376	    -15.39567660	     42.29188990	     90.00000001	      0.00000000	      0.00000000
      1.37000000	     15.80701752	     -0.03872095	     -1.32851373	     -0.06277202	      0.89751427	     -0.35848145	      1.48585609	     -1.51997256	     -5.63720204	     62.09312237	     -6.71966141	      1.08372943	     12.37659843	    -18.51710565	     -7.52064502	    -17.14150204	      3.89703152	    -19.41093557	     11.38071394	      1.74968648	      0.19863093	     19.92678225	     12.80587621	     -7.52064502	    -29.94881814	     -1.77794082	     -3.92528391	     -3.66663917	     -2.84862332	    -26.37590550	     32.35786955	     90.00000001	      0.00000000	      0.00000000	     -1.02122824	     -4.86958824	    -13.53665420	     43.36155653	     90.00000001	      0.00000000	      0.00000000
      1.38000000	     15.95192038	     -0.16201969	     -1.14149659	     -0.05257801	      0.89727466	     -0.35794062	      2.42328467	     -1.24102296	     -5.64636446	     60.19300618	     -6.71123056	      1.05056614	     12.70081920	    -18.51504856	     -7.52015110	    -18.54324409	      3.65329686	    -19.64139617	     10.44961949	      2.08578952	      0.18238027	     20.04278206	     13.44065851	     -7.52015110	    -30.09685222	     -1.65939312	     -4.12658362	     -3.95167495	     -2.78585513	    -26.52022524	     32.30208580	     90.00000001	      0.00000000	      0.00000000	     -0.46175804	     -4.97276033	    -13.40053734	     43.74598961	     90.00000001	      0.00000000	      0.00000000
      1.39000000	     16.12484548	     -0.27515284	     -0.96190091	     -0.04233845	      0.89687881	     -0.35735793	      3.22997351	     -0.98004366	     -5.78368544	     58.00411010	     -6.72758884	      1.01236270	     12.78470542	    -18.46327375	     -7.51964060	    -19.96602959	      3.42571724	    -19.96476672	      9.53043335	      2.40252262	      0.16633744	     20.12538329	     14.27283033	     -7.51964060	    -30.27537047	     -1.56042161	     -4.35224312	     -4.19088089	     -2.69580201	    -26.72057592	     32.30103541	     90.00000001	      0.00000000	      0.00000000	      0.00841337	     -5.12807758	    -13.12762665	     44.25590628	     90.00000001	      0.00000000	      0.00000000
      1.40000000	     16.30790640	     -0.36471372	     -0.81743247	     -0.03209396	      0.89631717	     -0.35673219	      3.94027468	     -0.76291036	     -5.99605530	     55.58704591	     -6.70893326	      0.97017697	     12.71652699	    -18.38920174	     -7.51920005	    -21.36778542	      3.24122290	    -20.46911058	      8.67074859	      2.67576460	      0.15133311	     20.21953034	     15.08239093	     -7.51920005	    -30.46577363	     -1.49979749	     -4.52365112	     -4.40143045	     -2.61467272	    -26.91698072	     32.30594666	     90.00000001	      0.00000000	      0.00000000	      0.49354586	     -5.27862512	    -12.80378309	     44.78106256	     90.00000001	      0.00000000	      0.00000000
      1.41000000	     16.45992041	     -0.41918041	     -0.65698176	     -0.02179060	      0.89552243	     -0.35601748	      4.60368156	     -0.58178205	     -6.47931955	     52.93640653	     -6.80398744	      0.92391459	     12.31412635	    -18.22998125	     -7.51671219	    -22.54796629	      2.96260329	    -21.78271858	      8.26600836	      2.94470196	      0.14426906	     20.61015341	     17.59241113	     -7.51671219	    -30.61550556	     -1.47368946	     -4.67493779	     -4.45576601	     -2.30421658	    -28.35904029	     32.24548281	     90.00000001	      0.00000000	      0.00000000	      0.75339811	     -5.80419741	    -11.12274085	     45.71003274	     90.00000001	      0.00000000	      0.00000000
      1.42000000	     16.61893548	     -0.43544660	     -0.53808633	     -0.01147825	      0.89463363	     -0.35531605	      5.15413811	     -0.45403009	     -6.86313105	     50.08711188	     -6.73572496	      0.87418502	     11.88886871	    -18.02284815	     -7.51606696	    -23.89103609	      2.85476840	    -22.28449367	      7.49400876	      3.25518809	      0.13079513	     20.58649698	     18.39019637	     -7.51606696	    -30.76977752	     -1.49409719	     -4.83543100	     -4.66462313	     -2.20078505	    -28.56303730	     32.19798676	     90.00000001	      0.00000000	      0.00000000	      1.26416625	     -5.90053020	    -10.93674546	     46.13203144	     90.00000001	      0.00000000	      0.00000000
      1.43000000	     16.80376119	     -0.38300829	     -0.45637256	     -0.00116975	      0.89359590	     -0.35458575	      5.60593365	     -0.41178456	     -7.38382270	     47.06162531	     -6.68923031	      0.82138031	     11.29142064	    -17.71691250	     -7.51499967	    -25.15329129	      2.78536125	    -23.19298722	      6.98529303	      3.52431798	      0.12191636	     20.70007210	     19.72903628	     -7.51499967	    -30.96969574	     -1.60384754	     -4.91251994	     -4.75707348	     -2.03264445	    -29.04147598	     32.13028649	     90.00000001	      0.00000000	      0.00000000	      1.74204791	     -6.11522356	    -10.40079285	     46.69136125	     90.00000001	      0.00000000	      0.00000000
      1.44000000	     16.88155959	     -0.34604058	     -0.36106067	      0.00917506	      0.89235659	     -0.35384622	      6.06232800	     -0.33552634	     -7.81842409	     43.87772686	     -6.50456966	      0.76581080	     10.82771199	    -17.19612542	     -7.51356304	    -26.20729551	      2.65630040	    -24.26071136	      6.68858960	      3.77802444	      0.11673791	     20.91951311	     21.26964128	     -7.51356304	    -31.04241590	     -1.68024536	     -5.01638029	     -4.83743290	     -1.88648670	    -29.72477684	     31.97179520	     90.00000001	      0.00000000	      0.00000000	      2.20996965	     -6.29710960	     -9.76345299	     47.14054119	     90.00000001	      0.00000000	      0.00000000
      1.45000000	     16.94583073	     -0.23235674	     -0.30243645	      0.01952642	      0.89102809	     -0.35309638	      6.43575904	     -0.34684131	     -8.13911270	     40.55677155	     -6.17618506	      0.70784920	     10.45065064	    -16.38207601	     -7.51326757	    -27.28429634	      2.68306284	    -24.74494524	      6.27946855	      4.00387680	      0.10959740	     20.96739698	     21.74661792	     -7.51326757	    -31.10974611	     -1.83881376	     -5.11562803	     -4.99366053	     -1.79561391	    -29.80956596	     31.89386198	     90.00000001	      0.00000000	      0.00000000	      2.75923867	     -6.35741817	     -9.63908362	     47.43514148	     90.00000001	      0.00000000	      0.00000000
      1.46000000	     16.92906826	     -0.09883636	     -0.26663641	      0.02994948	      0.88947691	     -0.35230048	      6.84756811	     -0.36674218	     -8.80006695	     37.14691241	     -6.04425533	      0.64833593	      9.93795593	    -14.84533507	     -7.51193368	    -28.05171164	      2.60983549	    -26.12509758	      6.41066448	      4.15710100	      0.11188720	     21.29602159	     23.88437444	     -7.51193368	    -31.07817820	     -2.02669905	     -5.17241203	     -4.96205899	     -1.61059229	    -30.63240826	     31.58703899	     90.00000001	      0.00000000	      0.00000000	      3.22268207	     -6.56150351	     -8.92398158	     47.82834056	     90.00000001	      0.00000000	      0.00000000
      1.47000000	     16.78167821	      0.08381209	     -0.27824157	      0.04035370	      0.88781392	     -0.35149105	      7.28178909	     -0.41740834	     -9.04521936	     33.62749439	     -5.63987178	      0.58691050	      9.36718701	    -13.15333080	     -7.51151862	    -28.72388396	      2.68731284	    -26.64572335	      6.37022333	      4.28750598	      0.11118137	     21.39650332	     24.38187463	     -7.51151862	    -30.91531708	     -2.26711766	     -5.19977983	     -5.06531525	     -1.49487186	    -30.78230652	     31.46518545	     90.00000001	      0.00000000	      0.00000000	      3.72734352	     -6.58948474	     -8.77767136	     48.05068623	     90.00000001	      0.00000000	      0.00000000
